<svg width="31" height="30" viewBox="0 0 31 30" fill="none" xmlns="http://www.w3.org/2000/svg">
<path fill-rule="evenodd" clip-rule="evenodd" d="M15.5 0C24.0606 0 31 6.88489 31 15.3794C31 22.1729 26.5639 27.9359 20.4088 29.9714C19.623 30.1229 19.344 29.6426 19.344 29.2331C19.344 28.7261 19.3626 27.0702 19.3626 25.0122C19.3626 23.5782 18.8666 22.6423 18.3102 22.1653C21.762 21.7843 25.389 20.4836 25.389 14.5766C25.389 12.8966 24.7876 11.5257 23.7925 10.4487C23.9537 10.0602 24.4853 8.49592 23.6406 6.37792C23.6406 6.37792 22.3417 5.96583 19.3827 7.95482C18.1443 7.61433 16.8175 7.443 15.5 7.437C14.1825 7.443 12.8573 7.61433 11.6204 7.95482C8.6583 5.96583 7.3563 6.37792 7.3563 6.37792C6.51465 8.49592 7.0463 10.0602 7.20595 10.4487C6.2155 11.5257 5.60946 12.8966 5.60946 14.5766C5.60946 20.4686 9.2287 21.7892 12.6713 22.1777C12.228 22.5617 11.8265 23.2391 11.687 24.2336C10.8035 24.6266 8.5591 25.3068 7.1765 22.9563C7.1765 22.9563 6.35655 21.4786 4.80035 21.3706C4.80035 21.3706 3.2891 21.3512 4.69495 22.3052C4.69495 22.3052 5.7102 22.7777 6.41545 24.5551C6.41545 24.5551 7.3253 27.3001 11.6374 26.3701C11.6452 27.6556 11.6591 28.8671 11.6591 29.2331C11.6591 29.6396 11.3739 30.1154 10.6004 29.9729C4.44074 27.9404 0 22.1744 0 15.3794C0 6.88489 6.9409 0 15.5 0Z" fill="#DADADA"/>
</svg>
